<?xml version="1.0" encoding="UTF-8" standalone="no"?>
<svg width="265px" height="344px" viewBox="0 0 265 344" version="1.1" xmlns="http://www.w3.org/2000/svg" xmlns:xlink="http://www.w3.org/1999/xlink" xmlns:sketch="http://www.bohemiancoding.com/sketch/ns">
    <!-- Generator: Sketch 3.3.3 (12081) - http://www.bohemiancoding.com/sketch -->
    <title>Imported Layers</title>
    <desc>Created with Sketch.</desc>
    <defs></defs>
    <g id="Page-1" stroke="none" stroke-width="1" fill="none" fill-rule="evenodd" sketch:type="MSPage">
        <g id="404-copy" sketch:type="MSArtboardGroup" transform="translate(-589.000000, -44.000000)">
            <g id="Imported-Layers" sketch:type="MSLayerGroup" transform="translate(588.000000, 44.000000)">
                <path d="M126.749,18.7910148 C133.470951,33.5477769 136.497246,48.9190422 135.906377,65.124121 C135.882393,65.7494812 136.839557,66.0404473 137.12518,65.4520008 C140.437098,58.6034388 142.464803,51.6810495 143.426328,44.1419856 C143.90818,40.3724537 143.757738,35.940648 142.724262,32.8898459 C144.871885,39.2259601 145.96423,45.8942968 146.692459,52.5170344 C149.154049,74.8975446 142.628328,97.6710762 130.222262,116.253826 C129.790557,116.898729 130.717197,117.515404 131.249197,117.044212 C137.410803,111.557111 142.153016,105.570591 146.10159,98.3550639 C149.265246,92.5769968 146.389393,96.0881334 145.355918,99.5189286 C143.380541,106.076524 141.003984,112.523379 138.699377,118.972406 C138.468262,119.617309 139.344754,120.027701 139.791721,119.606452 C166.361197,94.5790178 177.201787,56.9075837 168.007344,21.6615915 C167.795852,20.8494919 166.533443,21.1947428 166.747115,22.0090138 C171.979902,42.0769943 170.645541,62.3555996 163.65977,81.826448 C159.698115,92.8701343 153.28577,102.917153 145.676426,111.793793 C142.656672,115.317958 139.953066,119.378456 142.715541,111.567968 C145.002705,105.099399 147.065295,98.5743742 148.909852,91.9690078 C149.140967,91.1373656 147.954869,90.865942 147.647443,91.6215855 C145.026689,98.0814688 141.891377,103.436115 137.550344,108.899331 C132.420033,115.359214 132.838656,115.04002 136.66077,108.284827 C141.123902,100.391827 143.993213,91.6671846 146.079787,82.8926002 C150.29,65.1870913 148.704902,46.4675436 142.900869,29.3439671 C142.678475,28.6860361 141.51418,28.7533492 141.616656,29.5155068 C142.610885,36.9698865 142.416836,43.7858777 140.98,51.209858 C140.395672,54.2389461 137.450049,58.6121243 137.347574,61.4284163 C137.482754,57.7305402 137.184049,54.0348355 136.887525,50.3543306 C135.984869,39.1477901 132.515967,28.3147285 127.87841,18.1330838 C127.529557,17.3687547 126.402328,18.0310285 126.749,18.7910148" id="Fill-1" fill="#231814" sketch:type="MSShapeGroup"></path>
                <path d="M131.100934,13.9922443 C137.088115,10.4224801 142.97282,6.70071877 148.76377,2.82044597 C153.839574,-0.579949777 162.556525,18.5890755 163.347984,21.8070746 C163.548574,22.6213456 164.808803,22.2760947 164.608213,21.4596523 C162.510738,12.9195779 156.820082,6.65077681 150.815459,0.492716569 C150.62359,0.292948748 150.261656,0.227807067 150.024,0.390661269 C143.618197,4.74429695 137.094656,8.90033619 130.440295,12.8652932 C129.718607,13.2973997 130.374885,14.4243507 131.100934,13.9922443" id="Fill-2" fill="#231814" sketch:type="MSShapeGroup"></path>
                <path d="M164.861131,16.7368804 C174.940787,29.0464867 181.392377,43.0584623 184.636705,58.5904104 C186.234885,66.2489007 186.442016,74.0876163 186.082262,81.8677044 C185.877311,86.2908246 185.096754,90.6661741 184.233344,95.0002673 C182.851016,101.924828 183.254377,96.4616123 183.001459,94.3792499 C182.506525,90.2992093 175.507672,93.9297723 173.959639,94.6376453 C162.52382,99.8793792 157.214721,112.629778 144.485967,116.175656 C143.674885,116.401481 144.019377,117.658715 144.83482,117.430719 C152.077869,115.413499 157.114426,110.886152 162.408262,105.733445 C166.226016,102.016026 169.989262,98.4940328 174.620279,95.762425 C183.768934,90.3686938 180.986836,98.4288911 182.598098,102.016026 C182.840115,102.554531 183.653377,102.361277 183.792918,101.861858 C192.272213,71.8120003 185.589508,40.0011461 165.78777,15.8162113 C165.25359,15.1626231 164.333492,16.0919778 164.861131,16.7368804" id="Fill-3" fill="#231814" sketch:type="MSShapeGroup"></path>
                <path d="M143.411066,0.781511355 C122.298951,-2.25191959 102.322787,3.99082484 86.4325574,18.0939988 C76.2242623,27.1552066 70.6949508,40.4267384 64.4766557,52.2412679 C58.3063279,63.9689419 50.4549672,75.6966158 48.9221967,89.1071166 C48.8262623,89.9409301 50.134459,89.9322445 50.2303934,89.1071166 C51.7260984,76.0223243 59.5796393,64.3532778 65.6060656,52.8991989 C71.2356721,42.2051063 76.2853115,30.6967426 84.581459,21.7267332 C99.3466393,5.76702134 121.828,-1.01205626 143.064393,2.0387458 C143.888557,2.15600082 144.243951,0.90093777 143.411066,0.781511355" id="Fill-4" fill="#231814" sketch:type="MSShapeGroup"></path>
                <path d="M48.2310328,90.7812578 C52.2123115,86.1757409 56.1935902,81.5702241 60.1748689,76.9647072 C63.314541,73.3319728 70.7189344,67.5213349 72.2429836,63.1286142 C67.8801475,75.6966158 64.4374098,88.2168469 65.0871475,101.607805 C65.1154918,102.19408 66.0290492,102.576245 66.3059508,101.937856 C68.5364262,96.8090346 70.762541,91.6823844 72.997377,86.5557341 C74.4451148,83.2378511 75.9691639,79.963396 77.5368197,76.7019691 C77.4844918,76.8061958 81.6990656,68.7199418 81.8298852,70.365855 C82.8437377,83.1748808 85.1701475,95.8601375 88.2291475,108.330427 C88.3577869,108.849389 89.1797705,109.003557 89.4261475,108.484595 C92.1733607,102.684814 91.8397705,96.5093829 92.1035902,90.1819543 C92.5222131,80.1349357 92.9430164,70.0879171 93.3616393,60.0408985 C93.3965246,59.2005708 92.0883279,59.2027422 92.0534426,60.0408985 C91.490918,73.5035126 91.0679344,86.9834978 90.3309836,100.437426 C89.116541,105.744302 88.3010984,105.996183 87.8781148,101.195241 C87.0975574,97.7948454 86.4652623,94.3640502 85.8351475,90.933255 C84.3721475,82.9837986 83.5000164,74.9409723 82.8611803,66.8872892 C82.8132131,66.2619291 81.9934098,65.9731343 81.642377,66.5594094 C75.6072295,76.6520272 71.1659016,87.5046312 66.4890984,98.2638655 C65.3771311,97.5103934 65.3073607,96.2618445 66.2776066,94.5160475 C66.3495574,89.8410462 67.3394262,85.2094727 68.3227541,80.6582405 C69.8337213,73.6576812 72.332377,66.8482042 74.6784098,60.0951833 C74.8899016,59.4871942 74.0090492,58.9704036 73.5860656,59.4611376 C64.8255082,69.5928403 56.0649508,79.7267145 47.3043934,89.8605887 C46.7571311,90.492463 47.6794098,91.4196462 48.2310328,90.7812578" id="Fill-5" fill="#231814" sketch:type="MSShapeGroup"></path>
                <path d="M94.4648852,62.9483889 C95.5550492,67.9490986 96.0587049,72.8520958 96.026,77.9548608 C96.0020164,81.5441674 95.1538689,85.6589503 96.2440328,89.1722583 C98.0733279,95.0588948 101.723197,97.2194272 106.827344,100.439598 C114.349475,105.188426 127.597148,113.548275 136.368607,106.682342 C137.031426,106.16338 136.100426,105.247054 135.444148,105.759502 C126.397967,112.840402 112.45259,102.448133 104.917377,97.6927901 C93.5862131,90.5424049 98.1888852,73.9008768 95.7272951,62.6009666 C95.5485082,61.7801814 94.2882787,62.1297751 94.4648852,62.9483889" id="Fill-6" fill="#231814" sketch:type="MSShapeGroup"></path>
                <path d="M112.967148,90.2992093 C115.426557,89.9539584 117.848902,89.461053 120.341016,89.4784242 C124.313574,89.5044808 125.525836,91.9624936 125.75477,95.4454021 C126.01859,99.4429299 121.154279,99.9705776 118.555328,98.5439748 C115.635869,96.9436608 114.818246,93.2045283 114.57841,90.1993254 C114.51082,89.3676833 113.202623,89.3611691 113.270213,90.1993254 C113.590721,94.2315955 114.859672,98.0032988 118.588033,100.050919 C121.490049,101.642547 124.845574,100.448283 126.517885,97.7839885 C127.991787,95.4345452 126.842754,91.1482226 124.865197,89.4349964 C121.843262,86.811958 116.080656,88.5577551 112.620475,89.0419749 C111.78759,89.1592299 112.142984,90.414293 112.967148,90.2992093" id="Fill-7" fill="#231814" sketch:type="MSShapeGroup"></path>
                <path d="M98.2237705,76.5651716 C96.7149836,75.4317063 100.497852,79.2859225 102.442705,79.6398589 C107.034475,80.4715011 111.938033,79.2316377 114.994852,76.4652877 C114.994852,76.4652877 103.061918,80.1935632 98.2237705,76.5651716" id="Fill-8" fill="#231814" sketch:type="MSShapeGroup"></path>
                <path d="M129.20623,76.8604805 C127.106574,74.398125 131.942541,82.4822076 135.751574,82.7102035 C139.558426,82.936028 145.349377,81.2618868 148.676557,79.8157415 C148.676557,79.8157415 134.504426,83.0793397 129.20623,76.8604805" id="Fill-9" fill="#231814" sketch:type="MSShapeGroup"></path>
                <path d="M95.3893443,60.4795192 C97.4061475,58.7250366 98.5137541,56.0824557 100.792197,54.6384818 C103.066279,53.1966792 108.179148,52.1630979 110.213393,54.1216911 C110.819525,54.7057949 111.746164,53.7851258 111.137852,53.201022 C108.630475,50.7842657 105.619443,51.8091614 102.595328,52.5952044 C98.5268361,53.652671 97.4126885,56.9922679 94.4648852,59.5566787 C93.8282295,60.110383 94.7570492,61.0288807 95.3893443,60.4795192" id="Fill-10" fill="#231814" sketch:type="MSShapeGroup"></path>
                <path d="M130.898164,56.7034731 L140.809934,56.7034731 C141.653721,56.7034731 141.653721,55.4006395 140.809934,55.4006395 L130.898164,55.4006395 C130.054377,55.4006395 130.054377,56.7034731 130.898164,56.7034731" id="Fill-11" fill="#231814" sketch:type="MSShapeGroup"></path>
                <path d="M121.16518,24.1586893 C117.846721,34.9504944 115.280475,45.8834399 113.45118,57.0226673 C112.85377,60.6662587 113.276754,60.8616837 112.020885,57.1116943 C110.806443,53.485474 110.052049,49.8592538 109.58982,46.0528082 C108.872492,40.1444578 111.462721,34.5379304 110.697426,28.62958 C110.649459,28.2604438 110.307148,27.8218231 109.868902,28.0020484 C104.616492,30.1582381 102.041525,35.3934578 99.1525902,40.012003 C94.9314754,46.7650239 91.6064754,54.0283214 88.7676885,61.4479588 C88.4668033,62.2340018 89.7313934,62.5705671 90.027918,61.7953811 C92.2147869,56.0846271 94.7374262,50.5996976 97.6372623,45.2211661 C98.8865902,42.9042937 100.28418,40.669934 101.67959,38.4377457 C102.032803,37.8731845 109.310738,28.0259337 109.690115,30.9486238 C110.296246,35.6279679 108.122459,41.1867247 108.281623,46.0528082 C108.469131,51.8265326 110.749754,57.5698574 112.642279,62.9418747 C112.834148,63.4803793 113.808754,63.6388907 113.904689,62.9418747 C115.716541,49.8918246 118.553148,37.1023413 122.42759,24.5061116 C122.676148,23.7005261 121.411557,23.3574466 121.16518,24.1586893" id="Fill-12" fill="#231814" sketch:type="MSShapeGroup"></path>
                <path d="M2.28062295,113.61776 C2.8475082,111.428999 14.6910492,107.930891 15.7724918,108.074203 C17.6039672,108.317398 18.7442787,107.69421 20.4078689,106.910338 C24.3433607,105.0538 26.2794918,104.332899 30.7884098,104.497924 C44.3783934,104.997344 42.8499836,120.540149 48.3073443,129.822839 C55.8512787,142.65575 67.8866885,152.385745 69.6309508,168.045806 C69.7225246,168.870934 71.0307213,168.879619 70.9391475,168.045806 C69.2297705,152.681054 57.7263607,141.500571 49.4367541,129.164908 C42.9677213,119.54131 47.5900164,107.28816 34.5516557,103.720567 C31.4425082,102.871554 27.7512131,102.895439 24.6006393,103.433944 C20.9878361,104.048447 18.8402131,107.392386 14.776082,106.278464 C12.0245082,105.524992 6.72195082,110.141365 3.37514754,110.640785 C1.73554098,110.883981 1.4084918,111.769907 1.02039344,113.272509 C0.808901639,114.08678 2.07131148,114.432031 2.28062295,113.61776" id="Fill-13" fill="#231814" sketch:type="MSShapeGroup"></path>
                <path d="M5.92831148,118.058251 C9.16827869,118.785666 12.4256885,119.519596 15.7703115,118.991948 C18.1686721,118.614127 20.5103443,118.160306 22.9392295,117.930139 C31.7128689,117.100668 32.5174098,123.799404 33.6032131,130.037806 C36.3482459,145.795579 39.9501475,161.214615 46.4453443,175.891035 C57.7808689,201.504744 81.0907541,172.746864 90.0955082,160.736909 C90.6013443,160.061607 89.4653934,159.414533 88.9660984,160.078978 C83.8793934,166.86457 78.3958689,173.150742 72.2429836,178.996122 C65.9091311,185.013042 53.6753115,186.348447 48.7194262,177.612947 C46.3537705,173.439537 44.8100984,168.788421 43.1726721,164.295816 C37.7392951,149.395742 35.4935574,133.401288 32.8204754,117.847626 C32.7877705,117.647858 32.565377,117.422034 32.3647869,117.391634 C23.5104754,116.090972 14.9505082,118.750924 6.27716393,116.801017 C5.45518033,116.616448 5.10632787,117.873683 5.92831148,118.058251" id="Fill-14" fill="#231814" sketch:type="MSShapeGroup"></path>
                <path d="M64.8320492,149.93859 C72.0271311,148.800782 76.3856066,144.510116 80.2753115,138.582223 C83.1271803,134.239445 84.9651967,129.206164 87.5118197,124.678817 C93.0084262,114.905394 102.200689,113.009771 112.548525,113.237767 C113.394492,113.255138 113.392311,111.952304 112.548525,111.934933 C103.373705,111.730822 96.0565246,112.577664 89.6136557,119.44794 C80.478082,129.186621 80.3930492,146.169058 64.4831967,148.681355 C63.6524918,148.81381 64.0057049,150.068873 64.8320492,149.93859" id="Fill-15" fill="#231814" sketch:type="MSShapeGroup"></path>
                <path d="M155.481361,115.504697 C168.495738,116.590392 177.576803,125.013211 185.164344,134.877833 C188.465361,139.17067 191.432787,143.092199 196.650311,145.007364 C197.443951,145.298331 197.784082,144.038925 196.999164,143.75013 C187.911557,140.419219 182.53923,128.591661 175.352869,122.368459 C169.721082,117.491518 162.842148,114.816367 155.481361,114.201863 C154.639754,114.132379 154.646295,115.435213 155.481361,115.504697" id="Fill-16" fill="#231814" sketch:type="MSShapeGroup"></path>
                <path d="M157.107885,148.994035 C165.45418,144.957422 177.589885,163.878909 181.887311,169.107615 C188.000951,176.546795 195.261443,182.928508 202.467426,189.281994 C203.097541,189.835698 204.026361,188.919372 203.394066,188.361324 C192.965557,179.16549 184.00877,169.409438 175.09341,158.789173 C171.051082,153.973031 163.594361,144.412404 156.447246,147.869256 C155.688492,148.23622 156.353492,149.358829 157.107885,148.994035" id="Fill-17" fill="#231814" sketch:type="MSShapeGroup"></path>
                <path d="M192.352885,172.206188 C196.844361,153.675551 203.912984,136.578031 212.878492,119.771477 C215.521049,114.816367 216.694066,110.123994 215.981098,104.547866 C214.840787,95.6104277 217.952115,97.0044597 224.083197,97.1738281 C230.944689,97.3627389 236.018311,93.2740128 242.818754,97.9294716 C247.787721,101.329867 252.274836,105.67916 256.48941,109.950283 C261.074639,114.599228 267.855459,130.736993 255.115803,128.741487 C244.805033,127.125973 233.667918,118.852979 226.106541,112.234585 C225.474246,111.683052 224.545426,112.60155 225.179902,113.157425 C230.702672,117.988767 257.448754,138.910103 264.042066,127.725276 C270.088115,117.467633 251.069115,102.467675 245.073213,97.9924419 C239.80118,94.0578843 235.004459,93.0199602 228.533246,94.8374131 C218.457951,97.6645621 219.240689,91.150394 213.848738,99.766467 C212.780377,101.473179 215.217984,108.805961 215.067541,107.642096 C216.068311,115.465612 208.452426,124.976297 205.129607,131.768403 C198.889508,144.525316 194.428557,158.089985 191.090475,171.858765 C190.892066,172.675208 192.154475,173.02263 192.352885,172.206188" id="Fill-18" fill="#231814" sketch:type="MSShapeGroup"></path>
                <path d="M229.169902,122.340231 C228.190934,133.260148 225.482967,143.873899 222.962508,154.515878 C219.419475,169.47458 214.180148,178.802868 200.679557,186.982492 C199.960049,187.418941 200.616328,188.545893 201.340197,188.109443 C211.60082,181.890584 218.148344,175.626126 221.870164,164.132962 C226.16541,150.863602 229.235311,136.21758 230.478098,122.340231 C230.55223,121.502075 229.244033,121.51076 229.169902,122.340231" id="Fill-19" fill="#231814" sketch:type="MSShapeGroup"></path>
                <path d="M118.561869,110.699412 C109.853639,122.767995 95.0862787,131.651148 91.0483115,146.514309 C86.4587213,163.407718 92.5723607,184.986985 95.9039016,201.630685 C96.0696066,202.455813 97.3298361,202.106219 97.1663115,201.285434 C93.6058361,183.506098 89.622377,165.038431 92.3107213,146.861731 C94.3798525,132.862784 111.761426,122.346745 119.691279,111.357343 C120.184033,110.673356 119.048082,110.02411 118.561869,110.699412" id="Fill-20" fill="#231814" sketch:type="MSShapeGroup"></path>
                <path d="M91.8092459,195.46611 C91.2270984,206.870247 90.6427705,218.272213 90.060623,229.67635 C89.3803607,242.954396 68.7457377,252.91673 58.5461639,258.675255 C47.3240164,265.009198 33.5792295,271.534223 36.1476557,286.688349 C36.2871967,287.515648 37.5496066,287.163883 37.4100656,286.340927 C34.9026885,271.560279 48.7739344,265.350106 59.204623,259.800035 C67.437541,255.420342 74.9836557,249.905013 82.3313607,244.209459 C88.0438197,239.777653 90.7278033,236.915762 91.3688197,229.67635 C92.3717705,218.33084 92.5352951,206.842019 93.1174426,195.46611 C93.1610492,194.625783 91.8528525,194.630126 91.8092459,195.46611" id="Fill-21" fill="#231814" sketch:type="MSShapeGroup"></path>
                <path d="M43.6741475,272.606889 C59.4073934,265.890782 75.5897869,271.662335 85.1854098,285.326888 C89.788082,291.880141 102.861328,288.927052 109.251869,288.373347 C123.792475,287.116113 123.434902,304.202776 134.587279,304.680481 C142.238049,305.008361 144.871885,298.95887 149.631541,293.914733 C152.047344,291.352493 156.503934,295.402135 160.012082,294.78546 C165.338623,293.84742 163.58782,284.881753 163.738262,282.002491 C164.31823,270.932748 168.118541,258.640513 181.087131,257.118369 C193.726492,255.63531 193.255541,272.520033 196.203344,279.537964 C199.000705,286.199786 210.253377,282.50191 213.916328,289.007393 C214.32841,289.741323 215.45782,289.083392 215.045738,288.351633 C210.975066,281.118735 200.038541,285.320374 196.587082,277.101665 C193.898738,270.700409 194.762148,259.884719 186.391869,256.970714 C180.116885,254.786297 172.777902,256.51038 168.64618,262.086508 C164.976689,267.039447 163.633607,272.109641 162.765836,278.174331 C162.425705,280.541146 162.364656,283.264068 162.240377,285.652596 C162.301426,286.280128 162.364656,286.905488 162.425705,287.53302 C162.911918,290.711934 160.003361,291.884484 153.697852,291.048499 C153.700033,290.520851 153.14623,290.277656 152.712344,290.486109 C149.629361,291.951797 147.706311,293.938618 145.552148,296.609427 C141.664623,301.432083 137.580869,308.332758 128.194557,298.876358 C126.094902,296.761424 125.013459,294.127529 123.007557,291.995225 C115.119131,283.61149 103.705115,287.834843 93.2024754,287.528677 C87.7145902,287.370165 82.7150984,279.481508 78.7534426,275.987742 C75.7947377,273.375561 72.1514098,271.77959 68.5277049,270.344301 C60.2577213,267.067675 50.9978689,268.075199 43.0135082,271.482109 C42.2416721,271.812161 42.9088525,272.934769 43.6741475,272.606889" id="Fill-22" fill="#231814" sketch:type="MSShapeGroup"></path>
                <path d="M157.245246,149.838706 C136.928951,165.225171 150.02182,190.697739 161.213443,207.378353 C169.753787,220.104866 185.724689,224.052451 193.811525,237.460781 C203.014689,252.719134 213.621984,273.508016 213.676492,291.432835 C213.678672,292.273163 214.986869,292.273163 214.984689,291.432835 C214.949803,279.959213 210.709066,269.894824 205.907984,259.650209 C200.882328,248.925717 196.685197,236.926619 188.478443,228.173748 C185.360574,224.849351 181.141639,222.400024 177.378393,219.922469 C169.428918,214.691592 163.607443,209.158892 158.710426,201.000982 C149.522525,185.690516 140.295377,164.300159 157.905885,150.963485 C158.568705,150.461894 157.918967,149.328429 157.245246,149.838706" id="Fill-23" fill="#231814" sketch:type="MSShapeGroup"></path>
                <path d="M142.11159,122.24469 C140.38477,133.29489 139.296787,147.098412 150.941918,153.128361 C151.68759,153.514868 152.35041,152.39226 151.600377,152.003581 C140.467623,146.236371 141.743115,133.023466 143.37182,122.592112 C143.502639,121.769155 142.24023,121.415219 142.11159,122.24469" id="Fill-24" fill="#231814" sketch:type="MSShapeGroup"></path>
                <path d="M41.0555738,286.757834 C46.4845902,287.196454 50.8844918,285.118435 55.7836885,289.558926 C59.7693279,293.172118 62.5928525,297.688608 65.8873279,301.877218 C68.3729016,305.034418 74.0134098,305.744462 77.5629836,306.532677 C77.9728852,306.623875 78.1473115,305.996343 77.7352295,305.905145 C76.3943279,305.607665 76.4444754,305.040932 75.0577869,304.734766 C70.7778033,303.781526 70.343918,304.986647 66.3495574,301.416883 C64.3872623,299.660229 62.7411148,296.424859 61.0382787,294.251298 C58.3368525,290.796618 55.0598197,287.26811 51.052377,285.37683 C48.3683934,284.11091 43.8027869,286.327898 41.0555738,286.106417 C40.6347705,286.071675 40.6391311,286.725263 41.0555738,286.757834" id="Fill-25" fill="#231814" sketch:type="MSShapeGroup"></path>
                <path d="M192.636328,304.632711 C197.520262,302.595948 202.369311,300.478843 207.183475,298.283568 C210.150902,296.928621 212.804361,295.319622 213.781148,292.090766 C213.905426,291.686887 213.273131,291.517519 213.151033,291.917055 C211.906066,296.029666 207.493082,297.436726 203.978393,299.026183 C200.16718,300.748095 196.321082,302.394008 192.461902,304.005179 C192.078164,304.163691 192.246049,304.795565 192.636328,304.632711" id="Fill-26" fill="#231814" sketch:type="MSShapeGroup"></path>
                <path d="M193.785361,280.486861 C192.993902,302.328867 187.392639,322.262221 178.067377,342.043578 C177.709803,342.799222 178.837033,343.459324 179.196787,342.699338 C188.598361,322.759469 194.295557,302.504749 195.093557,280.486861 C195.124082,279.646533 193.815885,279.648705 193.785361,280.486861" id="Fill-27" fill="#231814" sketch:type="MSShapeGroup"></path>
                <path d="M128.624082,305.2103 C127.839164,315.402802 128.305754,325.482391 129.993328,335.561981 C130.132869,336.38928 131.393098,336.035344 131.255738,335.214559 C129.583426,325.239196 129.156082,315.292061 129.932279,305.2103 C129.997689,304.372144 128.687311,304.378658 128.624082,305.2103" id="Fill-28" fill="#231814" sketch:type="MSShapeGroup"></path>
                <path d="M75.3739344,279.108029 C78.5637541,300.997805 81.4832131,324.815775 94.0702459,343.654749 C94.5346557,344.349594 95.6684262,343.698177 95.1996557,342.996818 C82.6976557,324.281613 79.806541,300.517928 76.6363443,278.762778 C76.5142459,277.933307 75.2540164,278.287244 75.3739344,279.108029" id="Fill-29" fill="#231814" sketch:type="MSShapeGroup"></path>
                <path d="M112.160426,155.023984 C115.215066,163.772511 121.452984,170.773071 129.853787,174.766256 C130.610361,175.126706 131.27318,174.001927 130.512246,173.641476 C122.421049,169.795945 116.368459,163.121094 113.420656,154.678733 C113.145934,153.890518 111.881344,154.229255 112.160426,155.023984" id="Fill-30" fill="#231814" sketch:type="MSShapeGroup"></path>
                <path d="M140.195082,206.472883 C139.569328,217.477484 136.981279,227.906668 132.376426,237.92763 C132.029754,238.685444 133.156984,239.347718 133.508016,238.58556 C138.195721,228.375688 140.864443,217.679424 141.503279,206.472883 C141.551246,205.632555 140.240869,205.636898 140.195082,206.472883" id="Fill-31" fill="#231814" sketch:type="MSShapeGroup"></path>
                <path d="M96.9395574,240.348729 C102.433984,252.612736 111.146574,262.692325 122.471197,269.972994 C123.184164,270.428986 123.838262,269.302034 123.131836,268.848214 C111.98818,261.684801 103.47182,251.748523 98.0689672,239.690798 C97.7244754,238.924297 96.5972459,239.588742 96.9395574,240.348729" id="Fill-32" fill="#231814" sketch:type="MSShapeGroup"></path>
                <path d="M148.146738,254.504016 C145.990393,261.734743 143.350016,268.696217 140.160197,275.544779 C137.831607,280.549831 133.86777,291.204839 128.366803,293.443541 C127.597148,293.756221 127.932918,295.017799 128.713475,294.698604 C133.902656,292.588014 136.239967,285.858878 138.734262,281.272904 C143.284607,272.906541 146.692459,263.953902 149.409148,254.849267 C149.648984,254.043681 148.386574,253.700602 148.146738,254.504016" id="Fill-33" fill="#231814" sketch:type="MSShapeGroup"></path>
                <path d="M154.816361,215.134555 C159.105066,221.928833 162.279623,231.789112 169.631689,235.92778 C170.366459,236.342515 171.024918,235.215564 170.292328,234.803 C163.302197,230.868443 160.051328,220.984278 155.94577,214.476624 C155.498803,213.76658 154.365033,214.420168 154.816361,215.134555" id="Fill-34" fill="#231814" sketch:type="MSShapeGroup"></path>
                <path d="M179.554361,237.371754 C180.792787,245.208298 185.009541,251.922234 191.467672,256.542951 C192.152295,257.035856 192.806393,255.904562 192.126131,255.418171 C185.93618,250.988537 181.998508,244.513453 180.81459,237.026503 C180.68377,236.197032 179.423541,236.550969 179.554361,237.371754" id="Fill-35" fill="#231814" sketch:type="MSShapeGroup"></path>
                <path d="M206.601328,49.442347 C209.954672,54.3127734 213.698295,60.2298094 210.392918,66.1012462 C209.978656,66.8351758 211.110246,67.4931068 211.522328,66.7591772 C215.082803,60.43392 211.393689,54.10432 207.730738,48.7844161 C207.257607,48.098257 206.123836,48.7475024 206.601328,49.442347" id="Fill-36" fill="#231814" sketch:type="MSShapeGroup"></path>
                <path d="M216.698426,48.7366455 C219.24941,51.0448324 222.352016,54.0565494 220.601213,57.7956819 C219.436918,60.2819227 216.142443,61.4088738 213.700475,62.0494337 C212.885033,62.2644012 213.231705,63.5216357 214.047148,63.3066681 C217.038557,62.5206252 221.056902,60.9441965 222.088197,57.6740841 C223.383311,53.5701582 220.485656,50.4042725 217.622885,47.8159764 C217.001492,47.2514152 216.072672,48.1699129 216.698426,48.7366455" id="Fill-37" fill="#231814" sketch:type="MSShapeGroup"></path>
                <path d="M32.059541,50.6083831 C28.3726066,57.6892838 26.7373607,65.2674327 27.2148525,73.2342603 C27.265,74.0680738 28.5731967,74.0724166 28.5230492,73.2342603 C28.0586393,65.4976 29.6044918,58.1517898 33.1889508,51.2663141 C33.5748689,50.5215275 32.4476393,49.8614252 32.059541,50.6083831" id="Fill-38" fill="#231814" sketch:type="MSShapeGroup"></path>
                <path d="M41.1384262,55.9543437 C39.5162623,58.6859516 40.2728361,62.1341179 42.7780328,64.0405977 C43.4473934,64.5530456 44.0993115,63.4195804 43.4364918,62.915818 C41.496,61.4371019 41.0403115,58.677266 42.2678361,56.6122747 C42.699541,55.8870307 41.5679508,55.2334425 41.1384262,55.9543437" id="Fill-39" fill="#231814" sketch:type="MSShapeGroup"></path>
                <path d="M112.339213,69.8490643 C113.276754,70.7154486 111.316639,64.6181873 110.32677,63.8126019 C110.32677,63.8126019 111.172738,68.7677124 112.339213,69.8490643" id="Fill-40" fill="#231814" sketch:type="MSShapeGroup"></path>
                <path d="M132.023213,63.6041485 C131.975246,62.3295429 129.031803,68.0207544 129.160443,69.2888458 C129.160443,69.2888458 132.079902,65.1892627 132.023213,63.6041485" id="Fill-41" fill="#231814" sketch:type="MSShapeGroup"></path>
                <path d="M236.768344,94.7527289 C239.803361,95.3911174 242.836197,96.0295059 245.869033,96.6678943 C247.170689,96.9436608 248.470164,97.2172558 249.769639,97.4908509 C252.259574,97.5733637 252.096049,99.0086521 249.279066,101.796716 C248.609705,101.653404 247.951246,101.47535 247.299328,101.262554 C246.490426,101.02153 246.145934,102.278764 246.952656,102.519789 C249.375,103.238519 256.118754,103.677139 254.814918,98.9587101 C254.239311,96.8785191 251.90418,96.6092668 250.118492,96.2336165 C245.784,95.3216329 241.449508,94.407478 237.117197,93.4954945 C236.293033,93.3217833 235.94418,94.5790178 236.768344,94.7527289" id="Fill-42" fill="#231814" sketch:type="MSShapeGroup"></path>
                <path d="M39.221918,278.791006 C42.0955902,279.466308 44.5331967,281.038394 46.3406885,283.359609 C46.5979672,283.68966 47.0580164,283.224983 46.802918,282.897103 C44.9321967,280.495547 42.3659508,278.86049 39.3963443,278.161303 C38.9864426,278.065762 38.8120164,278.693293 39.221918,278.791006" id="Fill-43" fill="#231814" sketch:type="MSShapeGroup"></path>
                <path d="M44.3914754,275.579521 C48.1743443,278.004963 51.4164918,281.051422 54.0612295,284.675471 C54.3076066,285.012037 54.8744918,284.688499 54.6259344,284.347591 C51.9157869,280.632344 48.5995082,277.503372 44.7207049,275.017131 C44.3653115,274.789135 44.0382623,275.353697 44.3914754,275.579521" id="Fill-44" fill="#231814" sketch:type="MSShapeGroup"></path>
                <path d="M51.1199672,272.923912 C53.5379508,279.275226 56.5489836,285.324717 60.1726885,291.08107 C60.3972623,291.437178 60.9619672,291.109298 60.7373934,290.75319 C57.1442131,285.042436 54.150623,279.055915 51.750082,272.752372 C51.6018197,272.363693 50.9695246,272.53089 51.1199672,272.923912" id="Fill-45" fill="#231814" sketch:type="MSShapeGroup"></path>
                <path d="M56.8956557,274.246288 C58.8187049,280.732228 60.7439344,287.218168 62.6669836,293.704108 C62.7847213,294.107987 63.4170164,293.936447 63.2970984,293.532568 C61.3740492,287.046628 59.451,280.560688 57.5257705,274.072577 C57.4080328,273.67087 56.7757377,273.84241 56.8956557,274.246288" id="Fill-46" fill="#231814" sketch:type="MSShapeGroup"></path>
                <path d="M60.9554262,275.505694 C63.0158361,283.544177 65.0762459,291.582661 67.1388361,299.621144 C67.2434918,300.029365 67.8736066,299.855654 67.7689508,299.449604 C65.708541,291.411121 63.6459508,283.370466 61.585541,275.331983 C61.4808852,274.925933 60.8507705,275.097473 60.9554262,275.505694" id="Fill-47" fill="#231814" sketch:type="MSShapeGroup"></path>
                <path d="M64.7731803,274.865134 C66.6569836,283.552863 68.5429672,292.23842 70.4289508,300.926149 C70.5183443,301.336542 71.148459,301.162831 71.0590656,300.752438 C69.173082,292.064709 67.2892787,283.379152 65.4032951,274.691423 C65.3139016,274.28103 64.6837869,274.454741 64.7731803,274.865134" id="Fill-48" fill="#231814" sketch:type="MSShapeGroup"></path>
                <path d="M69.0030164,276.267852 C72.9603115,283.081671 75.2256721,290.36234 75.8209016,298.20757 C75.8514262,298.624476 76.5055246,298.626648 76.475,298.20757 C75.8710492,290.266799 73.568623,282.82979 69.5677213,275.9378 C69.3562295,275.575178 68.7915246,275.903058 69.0030164,276.267852" id="Fill-49" fill="#231814" sketch:type="MSShapeGroup"></path>
                <path d="M67.1061311,278.048391 C68.3663607,286.084703 70.4202295,293.882162 73.2851803,301.499396 C73.4312623,301.888075 74.0635574,301.718706 73.9152951,301.325685 C71.0503443,293.708451 68.9964754,285.913163 67.7384262,277.876851 C67.6730164,277.462116 67.0429016,277.637998 67.1061311,278.048391" id="Fill-50" fill="#231814" sketch:type="MSShapeGroup"></path>
                <path d="M197.999934,283.112071 C197.766639,285.455 196.055082,287.163883 194.441639,288.725112 C194.138574,289.01825 194.600803,289.478584 194.903869,289.185447 C196.663393,287.483078 198.401115,285.650425 198.654033,283.112071 C198.695459,282.692993 198.041361,282.697335 197.999934,283.112071" id="Fill-51" fill="#231814" sketch:type="MSShapeGroup"></path>
                <path d="M199.101,285.140148 C199.087918,288.688199 198.032639,291.962654 195.983131,294.861459 C195.741115,295.204538 196.308,295.530247 196.547836,295.189338 C198.662754,292.199335 199.742016,288.794597 199.755098,285.140148 C199.755098,284.72107 199.101,284.72107 199.101,285.140148" id="Fill-52" fill="#231814" sketch:type="MSShapeGroup"></path>
                <path d="M203.963131,286.375669 C201.730475,291.398093 199.138066,296.22292 196.181541,300.861007 C195.954787,301.217115 196.521672,301.542824 196.746246,301.188887 C199.70277,296.552971 202.29518,291.728144 204.527836,286.703549 C204.697902,286.323556 204.133197,285.991333 203.963131,286.375669" id="Fill-53" fill="#231814" sketch:type="MSShapeGroup"></path>
                <path d="M206.930557,288.946594 C205.849115,291.567461 204.769852,294.188328 203.68623,296.807024 C203.527066,297.195702 204.159361,297.362899 204.318525,296.980735 C205.399967,294.359868 206.48141,291.741172 207.562852,289.120305 C207.722016,288.731626 207.089721,288.56443 206.930557,288.946594" id="Fill-54" fill="#231814" sketch:type="MSShapeGroup"></path>
                <path d="M210.273,289.717437 C210.360213,291.736829 209.959033,293.651995 209.049836,295.460762 C208.862328,295.834241 209.427033,296.164292 209.614541,295.788642 C210.573885,293.879991 211.018672,291.849742 210.927098,289.717437 C210.909656,289.298359 210.255557,289.296188 210.273,289.717437" id="Fill-55" fill="#231814" sketch:type="MSShapeGroup"></path>
                <path d="M123.299721,115.176817 C124.143508,115.176817 124.143508,113.873984 123.299721,113.873984 C122.455934,113.873984 122.455934,115.176817 123.299721,115.176817" id="Fill-56" fill="#231814" sketch:type="MSShapeGroup"></path>
                <path d="M122.782984,115.046534 C125.826721,117.684772 128.870459,120.32301 131.912016,122.961248 C132.546492,123.508438 133.475311,122.592112 132.838656,122.040579 C129.794918,119.402341 126.75118,116.764103 123.709623,114.125865 C123.075148,113.576503 122.146328,114.495001 122.782984,115.046534" id="Fill-57" fill="#231814" sketch:type="MSShapeGroup"></path>
                <path d="M127.178525,113.224738 C127.48377,115.83692 128.757082,118.053908 130.863279,119.639022 C131.537,120.144956 132.188918,119.013662 131.523918,118.514243 C129.825443,117.237466 128.730918,115.328815 128.486721,113.224738 C128.392967,112.39961 127.08259,112.390925 127.178525,113.224738" id="Fill-58" fill="#231814" sketch:type="MSShapeGroup"></path>
                <path d="M133.880852,119.658565 C134.99282,120.952713 136.102607,122.24469 137.214574,123.538838 C137.764016,124.177226 138.684115,123.252214 138.139033,122.618169 C137.029246,121.324021 135.917279,120.029873 134.807492,118.737896 C134.258049,118.097336 133.33577,119.024519 133.880852,119.658565" id="Fill-59" fill="#231814" sketch:type="MSShapeGroup"></path>
                <path d="M136.357705,116.036687 C136.99218,117.845455 137.958066,119.44794 139.272803,120.846315 C139.84841,121.460818 140.772869,120.535806 140.197262,119.923474 C139.039508,118.692297 138.178279,117.285236 137.620115,115.691437 C137.343213,114.903222 136.078623,115.241959 136.357705,116.036687" id="Fill-60" fill="#231814" sketch:type="MSShapeGroup"></path>
                <path d="M136.52777,113.361536 C137.168787,114.892365 137.809803,116.423195 138.453,117.954024 C138.771328,118.718353 140.038098,118.383959 139.71323,117.608773 C139.072213,116.077944 138.431197,114.544943 137.788,113.014113 C137.469672,112.249784 136.202902,112.584178 136.52777,113.361536" id="Fill-61" fill="#231814" sketch:type="MSShapeGroup"></path>
                <path d="M132.53341,118.153792 C132.967295,118.809552 133.399,119.467483 133.832885,120.123242 C134.292934,120.82243 135.426705,120.171013 134.962295,119.467483 C134.52841,118.809552 134.096705,118.151621 133.66282,117.495861 C133.20277,116.796674 132.069,117.448091 132.53341,118.153792" id="Fill-62" fill="#231814" sketch:type="MSShapeGroup"></path>
                <path d="M137.940623,111.057692 C138.845459,111.884991 139.421066,112.859945 139.706689,114.049866 C139.902918,114.86848 141.165328,114.521058 140.969098,113.704615 C140.633328,112.310583 139.924721,111.105462 138.865082,110.137023 C138.245869,109.568119 137.317049,110.488788 137.940623,111.057692" id="Fill-63" fill="#231814" sketch:type="MSShapeGroup"></path>
                <path d="M132.681672,115.639323 C133.558164,116.512222 134.432475,117.382949 135.308967,118.253676 C135.906377,118.848637 136.830836,117.927968 136.233426,117.333007 C135.359115,116.46228 134.482623,115.589381 133.608311,114.718654 C133.010902,114.123693 132.086443,115.044363 132.681672,115.639323" id="Fill-64" fill="#231814" sketch:type="MSShapeGroup"></path>
                <path d="M126.173393,110.999064 C127.48377,112.091273 128.796328,113.18131 130.106705,114.273519 C130.749902,114.807681 131.680902,113.891355 131.033344,113.350679 C129.720787,112.260641 128.41041,111.168433 127.097852,110.078395 C126.454656,109.544233 125.525836,110.46056 126.173393,110.999064" id="Fill-65" fill="#231814" sketch:type="MSShapeGroup"></path>
                <path d="M129.908295,111.615739 C130.34218,112.27367 130.773885,112.929429 131.20559,113.58736 C131.66782,114.286548 132.79941,113.635131 132.33718,112.929429 C131.903295,112.271498 131.47159,111.615739 131.037705,110.957808 C130.577656,110.25862 129.443885,110.912209 129.908295,111.615739" id="Fill-66" fill="#231814" sketch:type="MSShapeGroup"></path>
                <path d="M120.508902,110.19565 C121.612148,112.909887 123.604967,115.08779 126.275869,116.342853 C127.034623,116.69679 127.699623,115.574182 126.936508,115.218074 C124.592656,114.117179 122.745918,112.251956 121.769131,109.850399 C121.457344,109.081727 120.192754,109.416121 120.508902,110.19565" id="Fill-67" fill="#231814" sketch:type="MSShapeGroup"></path>
                <path d="M106.583148,135.587877 C102.364213,137.659383 98.7557705,140.501731 95.7643607,144.117095 C95.4460328,144.499259 95.5572295,145.044278 96.0521639,145.207132 C100.75077,146.746647 105.53223,147.039785 110.39218,146.136487 C111.220705,145.982318 110.869672,144.727255 110.045508,144.879252 C105.410131,145.743465 100.87723,145.417757 96.4010164,143.949898 C96.4969508,144.31252 96.5928852,144.675142 96.6888197,145.037764 C99.610459,141.509256 103.120787,138.736392 107.243787,136.712657 C108.000361,136.341349 107.335361,135.21657 106.583148,135.587877" id="Fill-68" fill="#007FFF" sketch:type="MSShapeGroup"></path>
                <path d="M106.258279,137.885207 C105.458098,142.039075 104.655738,146.195114 103.855557,150.348982 C103.696393,151.169767 104.956623,151.519361 105.115787,150.694233 C105.918148,146.540365 106.718328,142.386497 107.520689,138.23263 C107.677672,137.411844 106.417443,137.060079 106.258279,137.885207" id="Fill-69" fill="#007FFF" sketch:type="MSShapeGroup"></path>
                <path d="M113.163377,141.769823 C112.792721,143.99984 112.422066,146.232028 112.04923,148.464216 C111.994721,148.792096 112.132082,149.191632 112.507098,149.265459 C115.699098,149.895162 118.867115,150.394581 121.910852,148.963636 C124.117344,147.927883 125.466967,145.632725 125.198787,143.239853 C124.542508,137.372759 117.020377,137.809209 114.135803,141.483199 C113.621246,142.136788 114.541344,143.066142 115.060262,142.40604 C116.427328,140.664586 118.291508,139.652718 120.56123,139.984941 C122.876738,140.321506 124.265607,142.814261 123.829541,144.948737 C122.865836,149.660652 116.069754,148.644442 112.855951,148.008224 C113.006393,148.275305 113.159016,148.542386 113.311639,148.809467 C113.682295,146.57945 114.052951,144.347262 114.425787,142.115074 C114.560967,141.294289 113.300738,140.942523 113.163377,141.769823" id="Fill-70" fill="#007FFF" sketch:type="MSShapeGroup"></path>
                <path d="M132.677311,138.907932 C130.108885,141.185719 128.092082,143.893442 126.650885,147.005043 C126.489541,147.354636 126.592016,147.882284 127.041164,147.962625 C130.372705,148.566272 133.702066,148.742154 137.079393,148.459873 C137.912279,148.39256 137.91882,147.087555 137.079393,147.15704 C133.821984,147.428464 130.60818,147.289495 127.390016,146.705391 C127.520836,147.024585 127.651656,147.343779 127.780295,147.662974 C129.175705,144.646914 131.111836,142.039075 133.60177,139.828601 C134.234066,139.268382 133.305246,138.349885 132.677311,138.907932" id="Fill-71" fill="#2E93FF" sketch:type="MSShapeGroup"></path>
                <path d="M133.665,141.78068 C132.99782,145.702209 132.33282,149.621567 131.66782,153.543096 C131.528279,154.363881 132.788508,154.715646 132.928049,153.888347 C133.59523,149.968989 134.26023,146.04746 134.92523,142.125931 C135.06477,141.305146 133.804541,140.95338 133.665,141.78068" id="Fill-72" fill="#007FFF" sketch:type="MSShapeGroup"></path>
                <path d="M67.284918,59.3265114 C73.4552459,63.3240392 80.052918,66.3487846 87.1128197,68.4224615 C87.5183607,68.5418879 87.6906066,67.9143564 87.2872459,67.7949299 C80.2818525,65.7364528 73.7343279,62.7290786 67.6163279,58.7641216 C67.2609344,58.5339543 66.9338852,59.0985155 67.284918,59.3265114" id="Fill-73" fill="#000000" sketch:type="MSShapeGroup"></path>
                <path d="M65.3487869,65.1545205 C72.1862951,70.3484838 79.9613443,73.4427137 88.5016885,74.4154961 C88.9203115,74.4632667 88.9159508,73.8118499 88.5016885,73.7640793 C80.0965246,72.8064966 72.4043279,69.6992384 65.6780164,64.5921306 C65.3422459,64.3380781 65.017377,64.9048107 65.3487869,65.1545205" id="Fill-74" fill="#000000" sketch:type="MSShapeGroup"></path>
                <path d="M62.091377,73.622939 C67.4200984,77.0949906 73.1347377,79.668087 79.2723607,81.3595993 C79.680082,81.4725116 79.8523279,80.84498 79.4467869,80.7320678 C73.3680328,79.0557552 67.697,76.4978585 62.4206066,73.0605492 C62.0673934,72.8282105 61.7403443,73.3927717 62.091377,73.622939" id="Fill-75" fill="#000000" sketch:type="MSShapeGroup"></path>
                <path d="M59.470623,79.4987186 C67.843082,84.2974891 76.8914426,86.9748122 86.5372131,87.5133168 C86.9580164,87.5372021 86.9558361,86.8857852 86.5372131,86.8640714 C76.9742951,86.3277382 68.102541,83.6938429 59.7998525,78.9363288 C59.4335574,78.725704 59.1043279,79.2880939 59.470623,79.4987186" id="Fill-76" fill="#000000" sketch:type="MSShapeGroup"></path>
                <path d="M63.3254426,87.4807459 C70.1651311,91.4283318 77.406,94.2533094 85.12,95.9817353 C85.532082,96.075105 85.7065082,95.4454021 85.2944262,95.3542038 C77.6436557,93.6409776 70.4442131,90.8355425 63.6568525,86.9183561 C63.2905574,86.7077313 62.9613279,87.2701212 63.3254426,87.4807459" id="Fill-77" fill="#000000" sketch:type="MSShapeGroup"></path>
                <path d="M147.83059,9.72763554 C153.996557,14.7587447 160.698885,18.9299837 167.950656,22.2326669 C168.330033,22.406378 168.663623,21.8439882 168.279885,21.670277 C161.078262,18.3893077 154.421721,14.2658393 148.29282,9.26730099 C147.970131,9.00239149 147.503541,9.46055465 147.83059,9.72763554" id="Fill-78" fill="#000000" sketch:type="MSShapeGroup"></path>
                <path d="M145.129164,11.7643988 C151.42159,17.1646441 158.317967,21.6442204 165.829197,25.1879278 C166.206393,25.3681531 166.539984,24.8057633 166.158426,24.625538 C158.697344,21.1035444 151.848934,16.6739101 145.591393,11.3040642 C145.273066,11.0304692 144.808656,11.4886323 145.129164,11.7643988" id="Fill-79" fill="#000000" sketch:type="MSShapeGroup"></path>
                <path d="M141.477115,16.8150504 C150.481869,21.770161 159.687213,26.3018506 169.10841,30.4188048 C169.489967,30.5860018 169.823557,30.0257833 169.437639,29.856415 C160.018623,25.7394607 150.813279,21.2077711 141.808525,16.2526606 C141.437869,16.04855 141.108639,16.6109398 141.477115,16.8150504" id="Fill-80" fill="#000000" sketch:type="MSShapeGroup"></path>
                <path d="M132.143131,15.4753032 C146.775311,29.9172139 165.484705,37.9535259 184.285672,45.605502 C184.675951,45.7640134 184.843836,45.1321391 184.457918,44.9757991 C165.722361,37.3498797 147.196115,29.4156229 132.605361,15.0149686 C132.306656,14.7174883 131.844426,15.1778228 132.143131,15.4753032" id="Fill-81" fill="#000000" sketch:type="MSShapeGroup"></path>
                <path d="M126.871098,20.3240156 C142.822377,30.8161691 158.771475,41.3104939 174.720574,51.8026473 C175.073787,52.0349859 175.400836,51.4704247 175.051984,51.2402574 C159.100705,40.7459326 143.151607,30.2537792 127.202508,19.7616258 C126.849295,19.5292871 126.522246,20.0938484 126.871098,20.3240156" id="Fill-82" fill="#000000" sketch:type="MSShapeGroup"></path>
                <path d="M142.663213,41.2605519 C153.482,46.6325692 164.516639,51.4899672 175.786754,55.8436029 C176.181393,55.9956001 176.349279,55.3658972 175.96118,55.2160714 C164.743393,50.8819782 153.758902,46.0441227 142.994623,40.6981621 C142.617426,40.5114226 142.286016,41.0738124 142.663213,41.2605519" id="Fill-83" fill="#000000" sketch:type="MSShapeGroup"></path>
                <path d="M152.601148,35.8494496 C161.900246,40.5114226 170.948607,45.5989879 179.761492,51.120831 C180.119066,51.3444841 180.446115,50.7799229 180.090721,50.5584412 C171.280016,45.036598 162.231656,39.9490327 152.932557,35.2870598 C152.555361,35.0981489 152.226131,35.6605387 152.601148,35.8494496" id="Fill-84" fill="#000000" sketch:type="MSShapeGroup"></path>
                <path d="M157.177656,51.6007081 C166.441869,55.5852075 175.878328,59.0833158 185.506656,62.0928615 C185.910016,62.2188021 186.082262,61.5912705 185.681082,61.4653299 C176.105082,58.470984 166.723131,55.0011038 157.506885,51.0383182 C157.125328,50.8732926 156.791738,51.4356825 157.177656,51.6007081" id="Fill-85" fill="#000000" sketch:type="MSShapeGroup"></path>
                <path d="M149.326295,51.5268808 C159.733,56.5949036 170.495098,60.6554017 181.664918,63.7257463 C182.072639,63.8364871 182.244885,63.2089556 181.839344,63.0960434 C170.726213,60.0430699 160.014262,56.0086285 149.655525,50.964491 C149.278328,50.7820943 148.946918,51.3423127 149.326295,51.5268808" id="Fill-86" fill="#000000" sketch:type="MSShapeGroup"></path>
                <path d="M149.389525,56.6274744 C159.342721,61.85618 169.616426,66.2706146 180.262967,69.8990062 C180.664148,70.0336324 180.834213,69.4061009 180.437393,69.2693033 C169.849721,65.6626256 159.617443,61.2633907 149.720934,56.0650846 C149.348098,55.8696596 149.016689,56.4320494 149.389525,56.6274744" id="Fill-87" fill="#000000" sketch:type="MSShapeGroup"></path>
                <path d="M150.215869,64.2620795 C163.949754,69.2845031 177.897311,73.5621401 192.086885,77.1101903 C192.496787,77.2122456 192.671213,76.5825427 192.261311,76.4804874 C178.069557,72.9346086 164.12418,68.6569715 150.390295,63.6345479 C149.991295,63.4890648 149.82341,64.1187678 150.215869,64.2620795" id="Fill-88" fill="#000000" sketch:type="MSShapeGroup"></path>
                <path d="M152.725426,72.4438746 C162.776738,75.1081693 172.828049,77.7702927 182.879361,80.4345874 C183.287082,80.5431569 183.461508,79.913454 183.053787,79.8048845 C173.002475,77.1427612 162.951164,74.4806378 152.897672,71.8163431 C152.489951,71.7077736 152.317705,72.3374765 152.725426,72.4438746" id="Fill-89" fill="#000000" sketch:type="MSShapeGroup"></path>
                <path d="M154.14918,75.9550112 C154.992967,75.9550112 154.992967,74.6521776 154.14918,74.6521776 C153.305393,74.6521776 153.305393,75.9550112 154.14918,75.9550112" id="Fill-90" fill="#000000" sketch:type="MSShapeGroup"></path>
                <path d="M158.756213,77.9787461 C170.021967,82.2585545 181.562443,85.339756 193.467033,87.2462359 C193.879115,87.3113776 194.057902,86.683846 193.641459,86.6187044 C181.736869,84.7122245 170.196393,81.631023 158.930639,77.3512145 C158.536,77.2013887 158.368115,77.8310916 158.756213,77.9787461" id="Fill-91" fill="#000000" sketch:type="MSShapeGroup"></path>
                <path d="M151.992836,82.5039215 C160.428525,84.9489059 168.816246,87.5437162 177.156,90.2926952 C177.559361,90.4251499 177.729426,89.795447 177.330426,89.6651636 C168.988492,86.9161847 160.602951,84.3213744 152.165082,81.87639 C151.759541,81.759135 151.587295,82.3866665 151.992836,82.5039215" id="Fill-92" fill="#000000" sketch:type="MSShapeGroup"></path>
                <path d="M145.384262,84.1954338 C152.513934,88.2885028 159.990279,91.4804451 167.880885,93.8038318 C168.286426,93.9232582 168.458672,93.2957267 168.055311,93.1763002 C160.225754,90.8702847 152.788656,87.6935421 145.715672,83.633044 C145.349377,83.4245906 145.020148,83.9869804 145.384262,84.1954338" id="Fill-93" fill="#000000" sketch:type="MSShapeGroup"></path>
                <path d="M149.803787,92.7355082 C155.073639,97.0696014 161.12623,99.8641795 167.859082,101.038901 C168.271164,101.110557 168.44777,100.483025 168.033508,100.409198 C161.422754,99.2583619 155.439934,96.5310968 150.266016,92.2751737 C149.943328,92.0102642 149.478918,92.4684273 149.803787,92.7355082" id="Fill-94" fill="#000000" sketch:type="MSShapeGroup"></path>
                <path d="M148.698361,100.487368 C152.906393,102.758642 157.312836,104.467525 161.954754,105.624875 C162.364656,105.726931 162.536902,105.099399 162.12918,104.997344 C157.543951,103.853022 153.185475,102.168024 149.02977,99.9249784 C148.659115,99.7252106 148.327705,100.2876 148.698361,100.487368" id="Fill-95" fill="#000000" sketch:type="MSShapeGroup"></path>
                <path d="M146.123393,105.63139 C149.699131,107.863578 153.41223,109.826514 157.27141,111.528883 C157.652967,111.698252 157.986557,111.135862 157.600639,110.966493 C153.741459,109.264124 150.030541,107.301188 146.452623,105.069 C146.095049,104.845347 145.768,105.407737 146.123393,105.63139" id="Fill-96" fill="#000000" sketch:type="MSShapeGroup"></path>
                <path d="M144.843541,111.670023 C146.509311,112.173786 148.000656,112.979371 149.326295,114.099808 C149.644623,114.371232 150.109033,113.910897 149.788525,113.639474 C148.375672,112.447381 146.790574,111.578825 145.017967,111.042492 C144.614607,110.920894 144.442361,111.548426 144.843541,111.670023" id="Fill-97" fill="#000000" sketch:type="MSShapeGroup"></path>
                <path d="M79.2505574,61.041909 C83.5654262,63.5433496 87.8802951,66.0447901 92.1951639,68.5440593 C92.561459,68.7568554 92.8906885,68.1944656 92.5265738,67.9816694 C88.2117049,65.4824003 83.8968361,62.9809597 79.5819672,60.4795192 C79.2156721,60.2688944 78.8864426,60.8312843 79.2505574,61.041909" id="Fill-98" fill="#000000" sketch:type="MSShapeGroup"></path>
                <path d="M108.680623,28.2235302 C109.783869,28.6360941 110.887115,29.0486581 111.990361,29.4612221 C112.779639,29.756531 113.11977,28.4971252 112.337033,28.2039877 C111.233787,27.7914237 110.130541,27.3788597 109.029475,26.9662957 C108.238016,26.6709868 107.897885,27.9303926 108.680623,28.2235302" id="Fill-99" fill="#000000" sketch:type="MSShapeGroup"></path>
                <path d="M91.3993443,95.8253953 C94.0397213,101.8662 97.4715574,107.416272 101.670869,112.506008 C102.20723,113.155254 103.127328,112.228071 102.595328,111.585339 C98.4679672,106.580287 95.1233443,101.104043 92.5287541,95.1674643 C92.1929836,94.3987925 91.0657541,95.0632376 91.3993443,95.8253953" id="Fill-100" fill="#000000" sketch:type="MSShapeGroup"></path>
                <path d="M105.022033,101.292954 C104.291623,105.201455 103.559033,109.109955 102.828623,113.018456 C102.676,113.839241 103.93623,114.188835 104.091033,113.363707 C104.821443,109.455206 105.551852,105.546705 106.284443,101.638205 C106.437066,100.817419 105.176836,100.467826 105.022033,101.292954" id="Fill-101" fill="#000000" sketch:type="MSShapeGroup"></path>
                <path d="M95.7316557,97.8556443 L99.0130492,97.8556443 C99.4360328,97.8556443 99.4360328,97.2042275 99.0130492,97.2042275 L95.7316557,97.2042275 C95.3086721,97.2042275 95.3086721,97.8556443 95.7316557,97.8556443" id="Fill-102" fill="#000000" sketch:type="MSShapeGroup"></path>
                <path d="M98.3567705,103.08435 L103.607,103.08435 C104.029984,103.08435 104.029984,102.432933 103.607,102.432933 L98.3567705,102.432933 C97.9359672,102.432933 97.9359672,103.08435 98.3567705,103.08435" id="Fill-103" fill="#000000" sketch:type="MSShapeGroup"></path>
                <path d="M99.6693279,106.354462 L101.638164,106.354462 C102.061148,106.354462 102.061148,105.700874 101.638164,105.700874 L99.6693279,105.700874 C99.2485246,105.700874 99.2485246,106.354462 99.6693279,106.354462" id="Fill-104" fill="#000000" sketch:type="MSShapeGroup"></path>
                <path d="M98.2848197,108.897159 C99.9723934,109.264124 101.598918,109.092584 103.177475,108.395568 C103.561213,108.2262 103.227623,107.66381 102.846066,107.833178 C101.437574,108.454196 99.9614918,108.595336 98.4592459,108.269628 C98.0471639,108.178429 97.8727377,108.808132 98.2848197,108.897159" id="Fill-105" fill="#000000" sketch:type="MSShapeGroup"></path>
                <path d="M95.8254098,99.8229231 C96.9199344,99.3886452 98.0166393,98.9565387 99.1111639,98.5244322 C99.4992623,98.372435 99.3291967,97.7427321 98.9367377,97.8969007 C97.8422131,98.3290072 96.7476885,98.7611137 95.6509836,99.1932202 C95.2628852,99.3473888 95.4329508,99.9770917 95.8254098,99.8229231" id="Fill-106" fill="#000000" sketch:type="MSShapeGroup"></path>
                <path d="M92.448082,93.9341151 L95.7316557,93.9341151 C96.152459,93.9341151 96.152459,93.2805269 95.7316557,93.2805269 L92.448082,93.2805269 C92.0272787,93.2805269 92.0272787,93.9341151 92.448082,93.9341151" id="Fill-107" fill="#000000" sketch:type="MSShapeGroup"></path>
                <path d="M90.0039344,88.038793 C91.3295738,87.4090901 92.6530328,86.7815586 93.9786721,86.1518556 C94.3602295,85.9716303 94.0266393,85.4114119 93.6494426,85.5894658 C92.3238033,86.2191687 91.0003443,86.8467002 89.6747049,87.4764032 C89.2931475,87.6566285 89.6267377,88.2168469 90.0039344,88.038793" id="Fill-108" fill="#000000" sketch:type="MSShapeGroup"></path>
                <path d="M86.4238361,79.6442017 C88.837459,80.2977899 91.2728852,80.4715011 93.7540984,80.158821 C94.1683607,80.1067077 94.1727213,79.4531195 93.7540984,79.5074042 C91.3317541,79.8113987 88.957377,79.6550587 86.5982623,79.0166702 C86.190541,78.9059293 86.0182951,79.5356322 86.4238361,79.6442017" id="Fill-109" fill="#000000" sketch:type="MSShapeGroup"></path>
                <path d="M87.1978525,73.01495 L92.448082,73.01495 C92.8710656,73.01495 92.8710656,72.3635332 92.448082,72.3635332 L87.1978525,72.3635332 C86.7770492,72.3635332 86.7770492,73.01495 87.1978525,73.01495" id="Fill-110" fill="#000000" sketch:type="MSShapeGroup"></path>
                <path d="M86.5415738,67.784073 L95.7316557,67.784073 C96.152459,67.784073 96.152459,67.1326562 95.7316557,67.1326562 L86.5415738,67.1326562 C86.1207705,67.1326562 86.1207705,67.784073 86.5415738,67.784073" id="Fill-111" fill="#000000" sketch:type="MSShapeGroup"></path>
                <path d="M134.234066,2.20811417 C137.833787,3.57826086 141.474934,4.82680974 145.161869,5.95158943 C145.56523,6.07535863 145.737475,5.4478271 145.334115,5.32405791 C141.649361,4.19710683 138.008213,2.95072933 134.406311,1.58058264 C134.011672,1.43075678 133.843787,2.06045969 134.234066,2.20811417" id="Fill-112" fill="#000000" sketch:type="MSShapeGroup"></path>
                <path d="M124.259066,3.80842813 C127.902393,4.72909722 131.547902,5.64759492 135.19341,6.56826401 C135.603311,6.6724907 135.775557,6.04278779 135.367836,5.94073249 C131.722328,5.0200634 128.07682,4.09939431 124.431311,3.17872521 C124.02359,3.07666991 123.849164,3.70420144 124.259066,3.80842813" id="Fill-113" fill="#000000" sketch:type="MSShapeGroup"></path>
                <path d="M113.183,5.88427636 C120.517623,7.24139472 127.854426,8.59851307 135.189049,9.95780281 C135.601131,10.0338014 135.777738,9.40626991 135.363475,9.3280999 C128.026672,7.97098154 120.692049,6.61386319 113.357426,5.25674484 C112.945344,5.18074621 112.768738,5.80827774 113.183,5.88427636" id="Fill-114" fill="#000000" sketch:type="MSShapeGroup"></path>
                <path d="M101.860557,8.73965338 C110.276623,10.6027055 118.753738,12.0358224 127.313705,13.0520327 C127.732328,13.1019746 127.727967,12.4505578 127.313705,12.4006158 C118.810426,11.3909198 110.394361,9.96214559 102.034984,8.11212185 C101.622902,8.0209235 101.448475,8.64845503 101.860557,8.73965338" id="Fill-115" fill="#000000" sketch:type="MSShapeGroup"></path>
                <path d="M100.665738,12.5830126 C108.700246,15.1018242 116.859033,16.3178023 125.279459,16.2504892 C125.700262,16.2483178 125.700262,15.596901 125.279459,15.5990724 C116.926623,15.6642141 108.802721,14.4525788 100.840164,11.955481 C100.436803,11.8295404 100.266738,12.4592434 100.665738,12.5830126" id="Fill-116" fill="#000000" sketch:type="MSShapeGroup"></path>
                <path d="M95.6815082,15.3146204 C104.304705,16.8932204 112.925721,18.4718205 121.548918,20.0504206 C121.961,20.1264192 122.137607,19.4988877 121.721164,19.4228891 C113.100148,17.844289 104.479131,16.2635175 95.8559344,14.6849175 C95.4438525,14.6110902 95.2672459,15.2386217 95.6815082,15.3146204" id="Fill-117" fill="#000000" sketch:type="MSShapeGroup"></path>
                <path d="M91.3491967,19.0537529 C101.350361,20.8342921 111.351525,22.6148314 121.352689,24.3953707 C121.76477,24.4691979 121.941377,23.8416664 121.527115,23.7678392 C111.525951,21.9872999 101.524787,20.2067606 91.523623,18.4240499 C91.111541,18.3523941 90.9349344,18.9799256 91.3491967,19.0537529" id="Fill-118" fill="#000000" sketch:type="MSShapeGroup"></path>
                <path d="M86.1730984,23.3422469 C98.9825246,25.6830046 111.833377,27.7371389 124.732197,29.511164 C125.144279,29.5676202 125.323066,28.9400886 124.906623,28.8814611 C112.005623,27.1096074 99.1547705,25.0533017 86.3475246,22.7147153 C85.9354426,22.6387167 85.7588361,23.2662482 86.1730984,23.3422469" id="Fill-119" fill="#000000" sketch:type="MSShapeGroup"></path>
                <path d="M85.7021475,27.9477637 C98.160541,30.3124067 110.673443,32.2905424 123.251754,33.888685 C123.668197,33.9407984 123.663836,33.2893815 123.251754,33.2372682 C110.727951,31.6478112 98.2760984,29.6740183 85.8765738,27.3180608 C85.4644918,27.2398908 85.2878852,27.8674223 85.7021475,27.9477637" id="Fill-120" fill="#000000" sketch:type="MSShapeGroup"></path>
                <path d="M80.0354754,31.5262134 C91.9705902,34.9222663 104.091033,37.1718257 116.449131,38.2966054 C116.869934,38.3356904 116.867754,37.6842736 116.449131,37.6451886 C104.13682,36.5247517 92.0948689,34.2773637 80.2077213,30.8986819 C79.8021803,30.7814268 79.6299344,31.4111297 80.0354754,31.5262134" id="Fill-121" fill="#000000" sketch:type="MSShapeGroup"></path>
                <path d="M79.8370656,37.5127339 C87.4289672,39.2455026 95.0535738,40.8089029 102.715246,42.2051063 C103.127328,42.2811049 103.303934,41.6535734 102.889672,41.5775748 C95.228,40.1813714 87.6033934,38.617971 80.0093115,36.8852023 C79.5994098,36.7918326 79.4249836,37.4193641 79.8370656,37.5127339" id="Fill-122" fill="#000000" sketch:type="MSShapeGroup"></path>
                <path d="M76.6189016,44.2136414 C85.0393279,46.8627365 93.5840328,48.9298991 102.285721,50.423815 C102.699984,50.4932995 102.87659,49.865768 102.460148,49.7941121 C93.758459,48.3023676 85.2137541,46.2352049 76.7933279,43.5861099 C76.3899672,43.4601693 76.2177213,44.0877009 76.6189016,44.2136414" id="Fill-123" fill="#000000" sketch:type="MSShapeGroup"></path>
                <path d="M77.6000492,46.3568027 C80.9621148,49.1274956 84.7428033,51.1512305 88.9224918,52.4041221 C89.3280328,52.5235485 89.4980984,51.896017 89.096918,51.7744192 C85.0218852,50.5540984 81.3393115,48.5976766 78.0622787,45.8942968 C77.7417705,45.6293873 77.2751803,46.0875505 77.6000492,46.3568027" id="Fill-124" fill="#000000" sketch:type="MSShapeGroup"></path>
                <path d="M67.0603443,52.3889224 C72.8360328,54.6753954 79.2418361,55.7220051 85.266082,57.215921 C85.6738033,57.3179763 85.8482295,56.6882733 85.4383279,56.5883894 C79.4162623,55.0944736 73.010459,54.0478639 67.2347705,51.7613909 C66.8423115,51.6050508 66.6722459,52.2347538 67.0603443,52.3889224" id="Fill-125" fill="#000000" sketch:type="MSShapeGroup"></path>
                <path d="M71.8679672,57.7218547 C75.9211967,59.2917692 80.1008852,60.1299255 84.4462787,60.2602089 C84.867082,60.2710658 84.867082,59.619649 84.4462787,59.6066207 C80.1510328,59.4806801 76.0432951,58.6425238 72.0423934,57.0943232 C71.6477541,56.9401545 71.4798689,57.5698574 71.8679672,57.7218547" id="Fill-126" fill="#000000" sketch:type="MSShapeGroup"></path>
                <path d="M69.9209344,46.7411387 C74.3993279,48.6693324 78.9845574,50.2587894 83.6984262,51.5073383 C84.1061475,51.6159078 84.2805738,50.9862049 83.8728525,50.8776354 C79.2134918,49.6442862 74.6762295,48.0830573 70.2501639,46.1787488 C69.8686066,46.0137232 69.5328361,46.5739417 69.9209344,46.7411387" id="Fill-127" fill="#000000" sketch:type="MSShapeGroup"></path>
                <path d="M73.3985574,39.8122352 C78.0382951,41.395178 82.7739672,42.4591588 87.6426393,43.0302342 C88.0612623,43.0801762 88.0569016,42.4287594 87.6426393,42.3788174 C82.8306557,41.8142562 78.1560328,40.748104 73.5729836,39.1847037 C73.1718033,39.0479061 73.0017377,39.6776091 73.3985574,39.8122352" id="Fill-128" fill="#000000" sketch:type="MSShapeGroup"></path>
                <path d="M109.400131,40.8523307 C110.760656,40.9435291 112.12118,41.0347274 113.481705,41.1237544 C114.323311,41.1802105 114.318951,39.8773769 113.481705,39.8209208 C112.12118,39.7318938 110.760656,39.6406954 109.400131,39.5494971 C108.558525,39.493041 108.562885,40.798046 109.400131,40.8523307" id="Fill-129" fill="#000000" sketch:type="MSShapeGroup"></path>
                <path d="M109.899426,44.9388855 C110.810803,45.1451675 111.724361,45.3514495 112.635738,45.5555601 C113.457721,45.7422996 113.806574,44.4850651 112.98241,44.300497 C112.071033,44.094215 111.159656,43.887933 110.246098,43.6838224 C109.426295,43.497083 109.077443,44.7543174 109.899426,44.9388855" id="Fill-130" fill="#000000" sketch:type="MSShapeGroup"></path>
                <path d="M109.171197,48.5477346 L112.347934,48.5477346 C113.191721,48.5477346 113.191721,47.244901 112.347934,47.244901 L109.171197,47.244901 C108.32959,47.244901 108.32959,48.5477346 109.171197,48.5477346" id="Fill-131" fill="#000000" sketch:type="MSShapeGroup"></path>
                <path d="M110.601492,51.1859727 C111.131311,51.3357986 111.658951,51.4877958 112.18877,51.6376217 C113.002033,51.8699603 113.346525,50.6127259 112.537623,50.3825586 C112.007803,50.2305614 111.477984,50.0807355 110.948164,49.9287383 C110.137082,49.698571 109.79259,50.9558054 110.601492,51.1859727" id="Fill-132" fill="#000000" sketch:type="MSShapeGroup"></path>
            </g>
        </g>
    </g>
</svg>